<?xml version="1.0" encoding="UTF-8"?>
<svg version="1.1" xmlns="http://www.w3.org/2000/svg" width="800" height="798">
<path d="M0 0 C2.09750618 -0.00087303 4.19501214 -0.0026258 6.29251695 -0.00517833 C12.03462925 -0.00963674 17.77666652 -0.0016689 23.51876926 0.00837779 C29.71902521 0.01703172 35.91927707 0.01409075 42.11953735 0.01257324 C52.85474628 0.01152562 63.58992519 0.01771934 74.32512665 0.02904892 C85.58003607 0.04089645 96.83493577 0.04858353 108.08985138 0.05075455 C109.14085127 0.05096077 109.14085127 0.05096077 110.21308349 0.05117115 C113.7716387 0.05184785 117.33019392 0.0524506 120.88874915 0.0530249 C146.07218133 0.05722201 171.25560084 0.07068634 196.43902588 0.08963013 C220.89931165 0.10800866 245.35959395 0.12217115 269.81988525 0.13064575 C270.95150622 0.13104033 270.95150622 0.13104033 272.10598822 0.13144288 C279.68235311 0.13408 287.25871804 0.13663161 294.83508299 0.1391206 C310.26802589 0.14419257 325.70096856 0.14983508 341.13391113 0.15582275 C342.19820601 0.15623462 342.19820601 0.15623462 343.28400179 0.15665481 C390.63841624 0.17504581 437.99282325 0.20677669 485.347229 0.24050903 C485.36027281 2.31039774 485.36955293 4.38031037 485.3772583 6.45022583 C485.38283249 7.60290451 485.38840668 8.75558319 485.39414978 9.94319153 C485.33542818 14.06980211 484.89137985 17.99852314 484.159729 22.05300903 C484.0266333 22.81017212 483.8935376 23.56733521 483.75640869 24.34744263 C477.41038032 58.3987828 458.39567982 88.41246513 430.347229 108.74050903 C404.78345041 125.83344975 378.03534773 133.42654752 347.37016296 133.36076355 C345.85271835 133.3612001 344.33527381 133.36207656 342.81782967 133.36335272 C338.66517808 133.36558115 334.51255245 133.36159906 330.35990417 133.35657465 C325.8753579 133.35224657 321.39081303 133.35371825 316.90626526 133.35447693 C309.1421569 133.35500067 301.37805697 133.35186952 293.61395073 133.34623909 C282.38842734 133.3381038 271.16290801 133.33550679 259.93738199 133.3342511 C241.72365356 133.33206377 223.50992961 133.32541233 205.29620361 133.31594849 C187.60577415 133.30676612 169.91534591 133.29968932 152.22491455 133.29544067 C151.13403868 133.29517795 150.04316281 133.29491523 148.9192301 133.29464454 C143.44649573 133.29333948 137.97376136 133.29207578 132.50102699 133.29083264 C87.11642455 133.28046996 41.73182701 133.26286032 -3.652771 133.24050903 C-3.65163184 134.01197118 -3.65049267 134.78343333 -3.64931899 135.57827312 C-3.58210542 181.35661846 -3.53067128 227.1349584 -3.49957501 272.91334324 C-3.49582313 278.4166857 -3.49194014 283.92002805 -3.48797607 289.42337036 C-3.48718914 290.5189327 -3.48640221 291.61449504 -3.48559143 292.74325623 C-3.47255686 310.4551851 -3.4489138 328.16708458 -3.42131261 345.87899605 C-3.39320411 364.06889558 -3.37658325 382.25877978 -3.37050551 400.44870013 C-3.36640035 411.66224243 -3.35346009 422.87570168 -3.3290216 434.0892184 C-3.31309712 441.79097673 -3.30838575 449.49269246 -3.31226686 457.19446603 C-3.31417802 461.63018536 -3.31136175 466.06576013 -3.29515457 470.5014534 C-3.15050931 512.15789509 -3.15050931 512.15789509 -9.840271 530.92800903 C-10.14142822 531.79683716 -10.44258545 532.66566528 -10.75286865 533.56082153 C-22.62032551 566.76775782 -46.85011 594.04801767 -78.57904053 609.52297974 C-95.1868158 617.28447354 -112.98375667 622.32882625 -131.418396 622.26004028 C-132.40098389 622.25722046 -133.38357178 622.25440063 -134.39593506 622.25149536 C-135.51306885 622.24605713 -135.51306885 622.24605713 -136.652771 622.24050903 C-136.72129127 574.37766806 -136.7849676 526.51482346 -136.82214355 478.65194702 C-136.82269578 477.9427907 -136.82324801 477.23363439 -136.82381697 476.50298848 C-136.83579051 461.08858264 -136.84687096 445.67417627 -136.85703231 430.25976913 C-136.86202136 422.6998008 -136.86720762 415.13983262 -136.87249756 407.5798645 C-136.87302059 406.82758412 -136.87354363 406.07530374 -136.87408252 405.30022699 C-136.89110715 380.94658888 -136.92113683 356.59298805 -136.95795988 332.2393725 C-136.99575286 307.19861019 -137.02032726 282.15786849 -137.02843096 257.11707814 C-137.02958346 253.57470782 -137.030886 250.03233758 -137.03227997 246.48996735 C-137.03254966 245.79282481 -137.03281935 245.09568228 -137.03309722 244.37741422 C-137.03781155 233.18614318 -137.05632977 221.99493615 -137.08009913 210.80369115 C-137.10373719 199.53404751 -137.11229849 188.26446561 -137.10677651 176.99479201 C-137.10422185 170.89618846 -137.10805842 164.79777169 -137.1295929 158.69920158 C-137.14920591 153.10361117 -137.14994614 147.50833134 -137.13636658 141.91272596 C-137.1346908 139.90026408 -137.13963907 137.88778199 -137.15230373 135.87535927 C-137.34994513 102.4990604 -126.9971128 69.02943049 -103.69573975 44.40457153 C-101.94875769 42.55403987 -100.36174258 40.66591606 -98.777771 38.67800903 C-74.50893742 10.37539113 -35.66347581 -0.11060139 0 0 Z " fill="#03AB60" transform="translate(314.65277099609375,-0.240509033203125)"/>
<path d="M0 0 C0.98258789 0.00281982 1.96517578 0.00563965 2.97753906 0.00854492 C4.09467285 0.01398315 4.09467285 0.01398315 5.234375 0.01953125 C5.28575562 47.82938415 5.33351414 95.63923909 5.36140442 143.44911194 C5.36181859 144.15727269 5.36223276 144.86543344 5.36265948 145.59505361 C5.37163924 160.98713036 5.37994964 176.3792074 5.38757099 191.77128487 C5.39131284 199.32009818 5.39520252 206.86891141 5.39916992 214.41772461 C5.3995622 215.16890242 5.39995448 215.92008024 5.40035864 216.69402101 C5.41313136 241.02011793 5.43565682 265.34619387 5.46326666 289.67227809 C5.4915994 314.68084101 5.51003943 339.68939232 5.51611997 364.69797102 C5.51698437 368.23427626 5.51796128 371.77058147 5.51900673 375.30688667 C5.51931013 376.35082915 5.51931013 376.35082915 5.51961967 377.41586137 C5.52315798 388.59655375 5.53705364 399.77721016 5.5548711 410.9578879 C5.57258246 422.21179211 5.57902455 433.46566155 5.57487913 444.71958261 C5.57296078 450.81170656 5.5758679 456.90372536 5.59199142 462.99583054 C5.60666733 468.5819689 5.60727768 474.16793212 5.59707168 479.75407881 C5.59581162 481.76648455 5.5995516 483.77890155 5.60902455 485.79128539 C5.76447021 520.87614158 -4.9984647 551.36093098 -27.765625 578.01953125 C-28.62070027 579.10214756 -29.47504145 580.1853448 -30.328125 581.26953125 C-33.53933449 584.89243426 -37.02835552 587.94963132 -40.765625 591.01953125 C-42.17328125 592.18355469 -42.17328125 592.18355469 -43.609375 593.37109375 C-64.85704835 610.54120222 -92.09106208 622.29460857 -119.65234375 622.06640625 C-120.4352478 622.06302246 -121.21815186 622.05963867 -122.02478027 622.05615234 C-123.93841406 622.04739095 -125.85202542 622.03394229 -127.765625 622.01953125 C-127.81700909 574.4144666 -127.86476715 526.80939989 -127.89265442 479.20431519 C-127.89306859 478.49911197 -127.89348276 477.79390875 -127.89390948 477.06733573 C-127.90288938 461.73929333 -127.91119976 446.41125063 -127.91882099 431.0832075 C-127.92256281 423.5657255 -127.9264525 416.04824359 -127.93041992 408.53076172 C-127.9308122 407.78270435 -127.93120448 407.03464698 -127.93160864 406.26392121 C-127.94437982 382.04181764 -127.96690413 357.81973514 -127.99451666 333.59764432 C-128.02285374 308.69459051 -128.04129044 283.79154834 -128.04736997 258.88847868 C-128.04823436 255.36654877 -128.04921127 251.84461891 -128.05025673 248.32268906 C-128.050459 247.62956113 -128.05066127 246.9364332 -128.05086967 246.2223014 C-128.05440705 235.09015775 -128.06830018 223.95805026 -128.0861211 212.82592133 C-128.10383867 201.6190485 -128.11027312 190.4122106 -128.10612913 179.20532085 C-128.10421164 173.13940128 -128.10710804 167.07358731 -128.12324142 161.00768661 C-128.13792952 155.4443176 -128.13851992 149.88112439 -128.12832168 144.31774698 C-128.12706279 142.31474464 -128.13079236 140.31173094 -128.14027455 138.30875064 C-128.3102151 100.16500427 -115.92335843 65.99694021 -89.20703125 38.41015625 C-66.1977311 15.2287167 -32.8935921 -0.12273728 0 0 Z " fill="#FBB015" transform="translate(127.765625,175.98046875)"/>
<path d="M0 0 C94.38 0 188.76 0 286 0 C286 37.60911263 272.59375239 69.17861557 246.3125 96.0625 C239.76802491 102.59194657 232.78724099 108.03749947 225 113 C223.89140625 113.70769531 222.7828125 114.41539062 221.640625 115.14453125 C203.86469195 125.85514529 182.62819665 133.13578305 161.74232483 133.12025452 C160.69817284 133.12153615 160.69817284 133.12153615 159.63292688 133.12284368 C157.31914119 133.12448026 155.00542931 133.1190072 152.69165039 133.11352539 C151.02561444 133.1132431 149.35957836 133.11340207 147.69354248 133.1139679 C143.18375929 133.11425423 138.67400281 133.10838395 134.16422582 133.10139394 C129.44635355 133.09513315 124.72848064 133.09455444 120.01060486 133.09336853 C111.08246673 133.09026325 102.15434088 133.08206068 93.22620815 133.07201904 C81.15749777 133.05874043 69.08878402 133.05335151 57.02006817 133.04751682 C38.01336959 133.03812026 19.00669691 133.01819597 0 133 C0 89.11 0 45.22 0 0 Z " fill="#FAAF15" transform="translate(352,176)"/>
</svg>
