<?xml version="1.0" encoding="UTF-8"?>
<svg version="1.1" xmlns="http://www.w3.org/2000/svg" width="400" height="400">
<path d="M0 0 C132 0 264 0 400 0 C400 132 400 264 400 400 C268 400 136 400 0 400 C0 268 0 136 0 0 Z " fill="#002854" transform="translate(0,0)"/>
<path d="M0 0 C3.22535155 2.10022892 3.59657169 3.11963576 4.6875 6.75 C4.94756222 9.98222828 4.94756222 9.98222828 4.96165466 13.71333313 C4.96950968 14.74645505 4.96950968 14.74645505 4.97752339 15.80044812 C4.99249117 18.10180654 4.99322782 20.402942 4.99389648 22.7043457 C5.00152015 24.35711033 5.00994801 26.00987141 5.01911926 27.66262817 C5.0410508 32.14827024 5.04986136 36.63384415 5.05494571 41.11953378 C5.05859088 43.92357645 5.06483179 46.72760131 5.0719471 49.53163719 C5.09643698 59.31854409 5.10949248 69.10539802 5.11303711 78.89233398 C5.11667197 88.00771916 5.14656491 97.12276755 5.18844169 106.23804981 C5.22315856 114.07006968 5.23858579 121.90197801 5.23928314 129.73407429 C5.24007549 134.40914876 5.24879438 139.08388009 5.27728081 143.75887489 C5.30348545 148.15769861 5.30565348 152.55589526 5.28962517 156.95476151 C5.28781257 158.56558921 5.2944844 160.17645317 5.31044388 161.78720284 C5.45980957 177.84638759 5.45980957 177.84638759 -0.3125 183.75 C-3.87604968 186.15780383 -7.25220344 186.01792492 -11.3828125 185.35546875 C-14.65045863 184.33019517 -16.26056099 182.40545048 -18.3125 179.75 C-20.32985716 175.70014922 -20.56755821 172.34751844 -20.57992554 167.84913635 C-20.58445665 167.16714438 -20.58898776 166.48515241 -20.59365618 165.78249401 C-20.60628622 163.50409646 -20.60468076 161.22593838 -20.60302734 158.94750977 C-20.60901339 157.31120497 -20.61581912 155.674903 -20.62338257 154.03860474 C-20.64104002 149.59854179 -20.64573778 145.15855594 -20.64701414 140.71846128 C-20.64843621 137.94391596 -20.65270683 135.16939023 -20.65800858 132.39484978 C-20.67650659 122.7139855 -20.6846793 113.03317628 -20.68310547 103.35229492 C-20.68190348 94.33007479 -20.70301764 85.30809367 -20.7345928 76.28593403 C-20.76074452 68.53717218 -20.77147326 60.78848845 -20.77019465 53.03968281 C-20.76968478 48.41279409 -20.77538216 43.78611788 -20.79655075 39.15927315 C-20.8159151 34.80812184 -20.8160701 30.45738622 -20.80151749 26.10622025 C-20.79942618 24.51068579 -20.80414951 22.91512542 -20.8162384 21.31963539 C-20.83169222 19.13855144 -20.82238398 16.95890071 -20.80697632 14.77784729 C-20.80806585 13.55835671 -20.80915539 12.33886614 -20.81027794 11.0824213 C-20.05705945 6.03992917 -17.23471887 1.99009385 -13.3125 -1.25 C-8.53103881 -2.8438204 -4.63754522 -1.75001707 0 0 Z " fill="#2F7FC1" transform="translate(207.3125,108.25)"/>
<path d="M0 0 C3.42934755 1.34191861 4.63855586 2.43120227 6.6075592 5.52978516 C8.38657294 9.96340983 8.4286206 13.66854677 8.40405273 18.3984375 C8.41091599 19.32601868 8.41777924 20.25359985 8.42485046 21.20928955 C8.44309935 24.26468361 8.43928404 27.31956333 8.43359375 30.375 C8.43815606 32.50439623 8.44346178 34.63379098 8.44947815 36.76318359 C8.45840521 41.22174062 8.45599018 45.68011848 8.44604492 50.13867188 C8.4345487 55.84853011 8.45477916 61.55777052 8.48396206 67.26754761 C8.50231751 71.66336994 8.502033 76.05904398 8.49632454 80.45489502 C8.49617128 82.56000638 8.50221912 84.66512777 8.51461601 86.77020264 C8.52951363 89.71438263 8.51885807 92.65741803 8.50170898 95.6015625 C8.51137695 96.46823547 8.52104492 97.33490845 8.53100586 98.22784424 C8.46509292 103.63898295 7.56586329 106.68708849 4 111 C1.08965647 113.76394798 -0.94218227 114.45075109 -4.9375 114.5 C-8.80287265 114.38614514 -9.78525866 114.161056 -13 111.75 C-15.65558444 108.0985714 -17.24728315 105.46716845 -17.26069641 100.90809631 C-17.26778122 100.10206467 -17.27486603 99.29603302 -17.28216553 98.46557617 C-17.27968811 97.5901416 -17.27721069 96.71470703 -17.2746582 95.81274414 C-17.27976913 94.88384872 -17.28488007 93.95495331 -17.29014587 92.99790955 C-17.30404746 89.92692627 -17.3030847 86.85616726 -17.30078125 83.78515625 C-17.3046678 81.65050676 -17.30900238 79.51585804 -17.31376648 77.38121033 C-17.32122986 72.90653985 -17.32093648 68.43194827 -17.31567383 63.95727539 C-17.30987836 58.22270662 -17.32681166 52.48846073 -17.3500185 46.75394535 C-17.36474903 42.34531261 -17.36562847 37.93675777 -17.36250877 33.52810478 C-17.3630223 31.41379596 -17.36826596 29.29948281 -17.37832069 27.18519783 C-17.39065472 24.22880177 -17.38391151 21.27303633 -17.37231445 18.31665039 C-17.37995819 17.44324005 -17.38760193 16.56982971 -17.39547729 15.66995239 C-17.34229575 9.53735252 -16.08953341 6.27390401 -11.875 1.6875 C-7.86182657 -0.66805832 -4.54700041 -0.66964915 0 0 Z " fill="#06ACDB" transform="translate(278,143)"/>
<path d="M0 0 C3.12578143 1.6720747 5.39281175 3.7856235 7 7 C7.10928982 10.08572758 7.15734429 13.1492284 7.16113281 16.2355957 C7.16609772 17.19345978 7.17106262 18.15132385 7.17617798 19.13821411 C7.19082214 22.31741038 7.19760557 25.49655675 7.203125 28.67578125 C7.20887487 30.88054913 7.21463262 33.085317 7.22039795 35.29008484 C7.23091454 39.91792026 7.23675281 44.54573828 7.24023438 49.17358398 C7.2457186 55.10548187 7.26974247 61.03715015 7.29820633 66.96897602 C7.3168249 71.52514824 7.32203791 76.0812651 7.32357025 80.63747215 C7.32659938 82.82435549 7.33463662 85.01123779 7.34775543 87.19808388 C7.36479835 90.25764067 7.36293975 93.31663578 7.35644531 96.3762207 C7.3656601 97.28082535 7.37487488 98.18542999 7.3843689 99.1174469 C7.35241834 103.91927407 7.10340175 107.09041309 4 111 C0.3337249 114.46850922 -2.64104516 114.55939614 -7.51953125 114.4296875 C-11.54378559 113.73257257 -13.25081366 111.96066221 -16 109 C-17.73470112 105.53059776 -17.1751508 101.50902194 -17.19287109 97.68847656 C-17.20513733 96.23945953 -17.20513733 96.23945953 -17.21765137 94.76116943 C-17.24252711 91.55432765 -17.25902732 88.3475302 -17.2734375 85.140625 C-17.27876118 84.04669182 -17.28408485 82.95275864 -17.28956985 81.82567596 C-17.31631138 76.03515828 -17.33568277 70.24466224 -17.35009766 64.45410156 C-17.36674448 58.47058358 -17.41152021 52.48761648 -17.4624691 46.50430679 C-17.49611401 41.9060604 -17.50767214 37.30794517 -17.51332474 32.7095871 C-17.5200452 30.50396262 -17.53528776 28.29834702 -17.55921555 26.0928421 C-17.59080874 23.00447126 -17.5909122 19.91759136 -17.58349609 16.82910156 C-17.6081041 15.4635614 -17.6081041 15.4635614 -17.63320923 14.07043457 C-17.59066981 9.74016884 -17.36381762 6.8870117 -14.58853149 3.44818115 C-10.14847428 -0.75113588 -5.93532485 -0.83621728 0 0 Z " fill="#87C5E8" transform="translate(131,143)"/>
<path d="M0 0 C3.42934755 1.34191861 4.63855586 2.43120227 6.6075592 5.52978516 C8.38657294 9.96340983 8.4286206 13.66854677 8.40405273 18.3984375 C8.41091599 19.32601868 8.41777924 20.25359985 8.42485046 21.20928955 C8.44309935 24.26468361 8.43928404 27.31956333 8.43359375 30.375 C8.43815606 32.50439623 8.44346178 34.63379098 8.44947815 36.76318359 C8.45840521 41.22174062 8.45599018 45.68011848 8.44604492 50.13867188 C8.4345487 55.84853011 8.45477916 61.55777052 8.48396206 67.26754761 C8.50231751 71.66336994 8.502033 76.05904398 8.49632454 80.45489502 C8.49617128 82.56000638 8.50221912 84.66512777 8.51461601 86.77020264 C8.52951363 89.71438263 8.51885807 92.65741803 8.50170898 95.6015625 C8.51137695 96.46823547 8.52104492 97.33490845 8.53100586 98.22784424 C8.46508143 103.63992564 7.56387869 106.68488696 4 111 C1.70557377 113.22447421 0.60620829 113.93111269 -2.578125 114.29296875 C-3.45984375 114.25816406 -4.3415625 114.22335937 -5.25 114.1875 C-6.58804687 114.14689453 -6.58804687 114.14689453 -7.953125 114.10546875 C-8.62859375 114.07066406 -9.3040625 114.03585937 -10 114 C-10.33 113.34 -10.66 112.68 -11 112 C-7.04 112 -3.08 112 1 112 C1.66 110.35 2.32 108.7 3 107 C3.66 106.01 4.32 105.02 5 104 C5.30865255 102.09330631 5.30865255 102.09330631 5.2784729 99.9947052 C5.28963638 99.18282242 5.30079987 98.37093964 5.31230164 97.53445435 C5.31446182 96.64756927 5.31662201 95.7606842 5.31884766 94.84692383 C5.32889328 93.91014297 5.3389389 92.97336212 5.34928894 92.00819397 C5.3802116 88.90781271 5.39718136 85.80751816 5.4140625 82.70703125 C5.43276683 80.55896758 5.45233969 78.41091132 5.4727478 76.26286316 C5.52415256 70.60597084 5.56373364 64.94905468 5.60089111 59.29205322 C5.64087848 53.52081361 5.69199482 47.7496739 5.7421875 41.97851562 C5.83904558 30.65241384 5.92341873 19.32625576 6 8 C5.01 8 4.02 8 3 8 C2.34 6.02 1.68 4.04 1 2 C-2.3 2.33 -5.6 2.66 -9 3 C-9 3.66 -9 4.32 -9 5 C-10.65 5.66 -12.3 6.32 -14 7 C-14.04630633 19.70851472 -14.08186057 32.41700943 -14.10362434 45.12559128 C-14.11406896 51.02646613 -14.12824062 56.92728333 -14.15087891 62.828125 C-14.17258297 68.5209739 -14.18456352 74.21376728 -14.18975449 79.90665436 C-14.19345461 82.08040491 -14.20067988 84.25415237 -14.21146011 86.42787933 C-14.22594253 89.46858832 -14.22797929 92.50906685 -14.22705078 95.54980469 C-14.23424133 96.45179596 -14.24143188 97.35378723 -14.24884033 98.28311157 C-14.246091 99.11319733 -14.24334167 99.94328308 -14.24050903 100.79852295 C-14.24235262 101.51752148 -14.24419621 102.23652 -14.24609566 102.97730637 C-14.10943651 105.08545355 -14.10943651 105.08545355 -12.92246819 107.07509232 C-12 109 -12 109 -13 112 C-16.85198194 106.31683605 -17.57761708 102.26096067 -17.50170898 95.47216797 C-17.50981346 94.07816772 -17.50981346 94.07816772 -17.51808167 92.65600586 C-17.53053303 89.60107032 -17.51410414 86.54708366 -17.49609375 83.4921875 C-17.49624879 81.36182608 -17.49773868 79.23146437 -17.50050354 77.10110474 C-17.50188584 72.64426144 -17.48935545 68.18774062 -17.46655273 63.73095703 C-17.43813432 58.01997615 -17.44091717 52.30952947 -17.45364285 46.59850883 C-17.46059819 42.20272257 -17.45281291 37.80705972 -17.44038582 33.41128922 C-17.43587237 31.30536497 -17.43553359 29.19942748 -17.43945122 27.09350204 C-17.44236285 24.15173929 -17.42585959 21.21071267 -17.40405273 18.26904297 C-17.40855438 17.40034576 -17.41305603 16.53164856 -17.41769409 15.6366272 C-17.34248129 9.52737433 -16.0734555 6.25640746 -11.875 1.6875 C-7.86182657 -0.66805832 -4.54700041 -0.66964915 0 0 Z " fill="#189AC5" transform="translate(278,143)"/>
<path d="M0 0 C1.40783868 2.81567735 1.10461515 5.12652839 1.08229065 8.27676392 C1.07906152 8.92775759 1.07583239 9.57875127 1.07250541 10.24947202 C1.06039838 12.44062459 1.04103229 14.63165378 1.02172852 16.82275391 C1.0115891 18.3895287 1.00189507 19.95630643 0.99261475 21.52308655 C0.96609991 25.78526919 0.93332735 30.04738382 0.89946485 34.30951357 C0.86515526 38.76046658 0.83655411 43.21145611 0.80735779 47.66244507 C0.75117193 56.09495214 0.68982255 64.52741349 0.62663645 72.9598707 C0.55496385 82.55825657 0.48901953 92.15667909 0.42356598 101.75510907 C0.28876937 121.50345365 0.14674788 141.25174085 0 161 C-0.33 161 -0.66 161 -1 161 C-1.33 164.63 -1.66 168.26 -2 172 C-2.33 172 -2.66 172 -3 172 C-3.07005871 150.31228129 -3.1229728 128.62458123 -3.15543652 106.93677235 C-3.17091014 96.86690808 -3.19200916 86.79711409 -3.22631836 76.72729492 C-3.25620551 67.95117814 -3.2755714 59.17511225 -3.28226548 50.39894599 C-3.2861789 45.75135638 -3.29538629 41.10391238 -3.31719017 36.4563694 C-3.3375445 32.08238515 -3.34383593 27.70860658 -3.33932304 23.33457947 C-3.34014872 21.72894867 -3.34612069 20.12331103 -3.35761642 18.51772118 C-3.37254441 16.32530747 -3.36895299 14.13367011 -3.36076355 11.9412384 C-3.36352893 10.71433194 -3.36629431 9.48742548 -3.36914349 8.22334003 C-2.96954634 4.73408037 -2.02466718 2.83143619 0 0 Z " fill="#2869A3" transform="translate(190,111)"/>
<path d="M0 0 C3.22535155 2.10022892 3.59657169 3.11963576 4.6875 6.75 C4.94756222 9.98222828 4.94756222 9.98222828 4.96165466 13.71333313 C4.96950968 14.74645505 4.96950968 14.74645505 4.97752339 15.80044812 C4.99249117 18.10180654 4.99322782 20.402942 4.99389648 22.7043457 C5.00152015 24.35711033 5.00994801 26.00987141 5.01911926 27.66262817 C5.0410508 32.14827024 5.04986136 36.63384415 5.05494571 41.11953378 C5.05859088 43.92357645 5.06483179 46.72760131 5.0719471 49.53163719 C5.09643698 59.31854409 5.10949248 69.10539802 5.11303711 78.89233398 C5.11667197 88.00771916 5.14656491 97.12276755 5.18844169 106.23804981 C5.22315856 114.07006968 5.23858579 121.90197801 5.23928314 129.73407429 C5.24007549 134.40914876 5.24879438 139.08388009 5.27728081 143.75887489 C5.30348545 148.15769861 5.30565348 152.55589526 5.28962517 156.95476151 C5.28781257 158.56558921 5.2944844 160.17645317 5.31044388 161.78720284 C5.45980957 177.84638759 5.45980957 177.84638759 -0.3125 183.75 C-4.56337559 186.62221324 -8.48647081 185.56797105 -13.3125 184.75 C-13.3125 184.09 -13.3125 183.43 -13.3125 182.75 C-9.0225 182.42 -4.7325 182.09 -0.3125 181.75 C3.13548241 173.54927483 3.10039763 165.72774819 3.04394531 156.98413086 C3.04473732 155.39974352 3.04683804 153.81535638 3.05014038 152.23097229 C3.05525061 147.95001906 3.04178671 143.66930845 3.02461338 139.38839412 C3.00951403 134.89716505 3.01074991 130.40593831 3.00994873 125.91468811 C3.00626275 118.37529389 2.99132918 110.83599108 2.96875 103.29663086 C2.93986852 93.63349987 2.92952405 83.97044238 2.9250679 74.30727291 C2.92108066 65.97999595 2.90858162 57.65273481 2.89472103 49.32546926 C2.89063338 46.65781074 2.88770203 43.99015277 2.88492584 41.3224926 C2.88001176 37.12405815 2.86977311 32.92566755 2.85548782 28.72725487 C2.85098776 27.19061937 2.84813163 25.653978 2.84708023 24.11733627 C2.84037572 13.39615706 2.84037572 13.39615706 1.6875 2.75 C0.3675 2.75 -0.9525 2.75 -2.3125 2.75 C-2.3125 2.09 -2.3125 1.43 -2.3125 0.75 C-6.9325 1.41 -11.5525 2.07 -16.3125 2.75 C-11.48465843 -3.68712209 -7.12187141 -2.68749865 0 0 Z " fill="#3779B3" transform="translate(207.3125,108.25)"/>
<path d="M0 0 C0.33 0 0.66 0 1 0 C1.17727407 21.42688904 1.34294461 42.85383976 1.49477577 64.2809248 C1.56554348 74.22973356 1.64011783 84.17848667 1.72363281 94.12719727 C1.79640895 102.79779228 1.86206403 111.46840685 1.91914403 120.13911992 C1.94962087 124.7308155 1.98367966 129.32242187 2.02626419 133.91402245 C2.06623004 138.2353947 2.09667705 142.5567293 2.11981392 146.87822342 C2.12998659 148.46451905 2.14364157 150.05079676 2.16103554 151.63702965 C2.18426567 153.80297645 2.1949592 155.96863936 2.20254517 158.13468933 C2.2117631 159.34684711 2.22098103 160.55900488 2.23047829 161.80789471 C2.0026846 164.96281848 1.35301234 167.16209706 0 170 C-0.66 170 -1.32 170 -2 170 C-1.75739488 169.21984968 -1.75739488 169.21984968 -1.50988865 168.42393875 C-0.85628608 165.31680429 -0.85857718 162.39374043 -0.84178162 159.21697998 C-0.83437465 158.19504889 -0.83437465 158.19504889 -0.82681805 157.15247273 C-0.81146665 154.87085664 -0.80308884 152.58926864 -0.79467773 150.30761719 C-0.78509736 148.67157749 -0.77508718 147.03554026 -0.76467896 145.39950562 C-0.73764115 140.95775116 -0.71662548 136.5159861 -0.69667697 132.07419491 C-0.6748105 127.43235782 -0.64742504 122.7905534 -0.62062073 118.14874268 C-0.5707028 109.35865068 -0.52576061 100.56854054 -0.48259836 91.77841306 C-0.43321832 81.771234 -0.37830303 71.76408772 -0.32291877 61.75694036 C-0.20911253 41.17132412 -0.10227051 20.58567657 0 0 Z " fill="#003A6C" transform="translate(212,118)"/>
<path d="M0 0 C3.56768587 2.48908317 3.89937676 4.6979468 4.6875 8.875 C4.0275 8.875 3.3675 8.875 2.6875 8.875 C2.3575 6.895 2.0275 4.915 1.6875 2.875 C0.3675 2.875 -0.9525 2.875 -2.3125 2.875 C-2.3125 2.215 -2.3125 1.555 -2.3125 0.875 C-6.9325 1.535 -11.5525 2.195 -16.3125 2.875 C-11.45630484 -3.59992688 -7.20056599 -2.44547524 0 0 Z " fill="#3170AA" transform="translate(207.3125,108.125)"/>
<path d="M0 0 C3.98448707 0.05228986 5.41507234 0.204065 8.875 2.375 C9.7721875 3.365 9.7721875 3.365 10.6875 4.375 C10.3575 5.035 10.0275 5.695 9.6875 6.375 C8.83478516 5.88966797 8.83478516 5.88966797 7.96484375 5.39453125 C4.27121739 3.74095238 0.66101531 3.88714848 -3.3125 4.375 C-6.29234167 5.70670309 -6.29234167 5.70670309 -8.3125 7.375 C-7.3788746 1.46203911 -6.01051881 0.08133314 0 0 Z " fill="#013B69" transform="translate(272.3125,139.625)"/>
<path d="M0 0 C0.99 0.33 1.98 0.66 3 1 C-0.75 5.875 -0.75 5.875 -3 7 C-4.70702735 7.06996014 -6.41668003 7.08440154 -8.125 7.0625 C-9.03507812 7.05347656 -9.94515625 7.04445313 -10.8828125 7.03515625 C-11.58148438 7.02355469 -12.28015625 7.01195312 -13 7 C-13.33 6.34 -13.66 5.68 -14 5 C-10.04 5 -6.08 5 -2 5 C-1.34 3.35 -0.68 1.7 0 0 Z " fill="#1C9DCC" transform="translate(281,250)"/>
<path d="M0 0 C0.66 1.32 1.32 2.64 2 4 C0.07423885 6.43929746 -1.80090595 8.80090595 -4 11 C-4.66 9.35 -5.32 7.7 -6 6 C-5.38125 5.7525 -4.7625 5.505 -4.125 5.25 C-1.64931313 3.79371361 -1.04874998 2.62187494 0 0 Z " fill="#033162" transform="translate(191,105)"/>
<path d="M0 0 C0.56203125 0.31710938 1.1240625 0.63421875 1.703125 0.9609375 C4.15196317 2.06874525 6.08387855 2.38975399 8.75 2.625 C9.54921875 2.69976562 10.3484375 2.77453125 11.171875 2.8515625 C11.77515625 2.90054687 12.3784375 2.94953125 13 3 C12.67 3.66 12.34 4.32 12 5 C4.6375 6.425 4.6375 6.425 1 4 C0.3125 1.875 0.3125 1.875 0 0 Z " fill="#013F6E" transform="translate(264,254)"/>
<path d="M0 0 C0.99 0.33 1.98 0.66 3 1 C3.33 1 3.66 1 4 1 C4.99 1.33 5.98 1.66 7 2 C6.67 2.66 6.34 3.32 6 4 C3.03 4 0.06 4 -3 4 C-2.67 3.01 -2.34 2.02 -2 1 C-1.34 0.67 -0.68 0.34 0 0 Z " fill="#0F3B65" transform="translate(124,139)"/>
<path d="M0 0 C3.57104439 1.87949705 5.54744301 3.17053157 7 7 C6.01 7 5.02 7 4 7 C0 2.65714286 0 2.65714286 0 0 Z " fill="#7FB4DB" transform="translate(130,143)"/>
</svg>
